<mxfile host="app.diagrams.net" modified="2023-06-24T14:50:17.076Z" agent="Mozilla/5.0 (Windows NT 10.0; Win64; x64) AppleWebKit/537.36 (KHTML, like Gecko) Chrome/114.0.0.0 Safari/537.36" version="21.5.0" etag="152KiemZkvIt1K4PKXUw" type="github">
  <diagram name="Trang-1" id="Hmk824Lip81Hd1_n_5VC">
    <mxGraphModel>
      <root>
        <mxCell id="0" />
        <mxCell id="1" parent="0" />
      </root>
    </mxGraphModel>
  </diagram>
</mxfile>
